PathFileType	4	(X/Y/Z)	E:\Qualisys_Data\Carbon_Farble_Plate\Data\Amateur_Runner\S1\T1\S1T1V13_c3d.trc
DataRate	CameraRate	NumFrames	NumMarkers	Units	OrigDataRate	OrigDataStartFrame	OrigNumFrames
200.000000	200.000000	4	39	mm	200.000000	0	328
Frame#	Time	LSHO			RSHO			LICST			RICST			LASIS			LHEEL			RASIS			LTROC			RTROC			SACR			LTH1			LSK4			LTH2			LTH3			RHM5			LSK2			LTH4			RTH1			LTOE			RTH2			RTH3			RTH4			LLEP			RLEP			LSK1			LSK3			RSK1			LHM5			RSK2			LFT1			RSK3			RSK4			LLME			RLME			RTOE			RHEEL			RFT1			RFT2			LFT2			
		X1	Y1	Z1	X2	Y2	Z2	X3	Y3	Z3	X4	Y4	Z4	X5	Y5	Z5	X6	Y6	Z6	X7	Y7	Z7	X8	Y8	Z8	X9	Y9	Z9	X10	Y10	Z10	X11	Y11	Z11	X12	Y12	Z12	X13	Y13	Z13	X14	Y14	Z14	X15	Y15	Z15	X16	Y16	Z16	X17	Y17	Z17	X18	Y18	Z18	X19	Y19	Z19	X20	Y20	Z20	X21	Y21	Z21	X22	Y22	Z22	X23	Y23	Z23	X24	Y24	Z24	X25	Y25	Z25	X26	Y26	Z26	X27	Y27	Z27	X28	Y28	Z28	X29	Y29	Z29	X30	Y30	Z30	X31	Y31	Z31	X32	Y32	Z32	X33	Y33	Z33	X34	Y34	Z34	X35	Y35	Z35	X36	Y36	Z36	X37	Y37	Z37	X38	Y38	Z38	X39	Y39	Z39	

1	0	-2417.042236328125	1562.510864257812	-547.1288452148438	-2505.115234375	1540.935668945312	-242.0024566650391	-2464.771240234375	1074.117309570312	-542.6452026367188	-2477.464599609375	1098.686157226562	-248.7706451416016	-2424.353271484375	1031.286987304688	-516.7426147460938	-2984.186767578125	304.7738647460938	-449.2392272949219	-2439.416015625	1051.068725585938	-254.2798614501953	-2552.30712890625	968.1463012695312	-560.8328857421875	-2538.981201171875	960.5236206054688	-221.304443359375	-2588.328125	1108.817749023438	-395.6576232910156	-2482.353515625	790.1522216796875	-533.58837890625	-2889.47119140625	393.8288269042969	-479.4393920898438	-2557.6796875	812.2713623046875	-562.440673828125	-2517.44482421875	692.7766723632812	-517.9200439453125	-2139.580810546875	149.4163665771484	-228.3515777587891	-2819.274169921875	460.9753723144531	-515.5809936523438	-2596.16845703125	720.2672119140625	-536.7197875976562	-2372.8466796875	871.8238525390625	-241.0082702636719	-2878.5029296875	70.98451232910156	-436.5681457519531	-2443.078369140625	838.6851806640625	-218.0889587402344	-2333.976318359375	776.8300170898438	-248.0131072998047	-2407.234619140625	747.44384765625	-235.5904998779297	-2627.469970703125	565.2195434570312	-503.8133239746094	-2328.696044921875	597.5938720703125	-263.8490905761719	-2761.809814453125	399.4522399902344	-509.3235778808594	-2840.379638671875	335.2584228515625	-504.8898315429688	-2303.24072265625	408.4344177246094	-237.0993347167969	-2923.678955078125	115.9072799682617	-497.5280456542969	-2381.455322265625	393.0504760742188	-257.0330505371094	-2999.040771484375	286.8648376464844	-417.5435791015625	-2281.689453125	310.3145141601562	-248.9957580566406	-2355.747802734375	296.8592834472656	-277.7189331054688	-2943.019775390625	271.069580078125	-496.2693481445312	-2278.322998046875	170.5025787353516	-252.5216369628906	-2080.659912109375	197.3239593505859	-301.6842956542969	-2322.88623046875	109.7155227661133	-299.7263793945312	-2298.700439453125	88.07085418701172	-331.0355224609375	-2309.5693359375	90.17731475830078	-274.4458618164062	-3008.87744140625	284.9517211914062	-470.7351989746094
2	0.005	-2401.72607421875	1562.895874023438	-545.9359741210938	-2489.4326171875	1540.312255859375	-241.0541381835938	-2449.8642578125	1075.245971679688	-543.7161254882812	-2462.414794921875	1099.165161132812	-249.0905609130859	-2408.20556640625	1031.836669921875	-516.6986083984375	-2972.923583984375	311.0525207519531	-450.0179748535156	-2423.656005859375	1051.00341796875	-254.6311492919922	-2536.40771484375	968.2881469726562	-560.8799438476562	-2522.864501953125	960.1898803710938	-221.5507354736328	-2572.256591796875	1109.080322265625	-395.6232604980469	-2465.139892578125	790.035400390625	-533.03515625	-2875.583740234375	398.5828552246094	-479.4531860351562	-2540.39404296875	811.8368530273438	-561.899169921875	-2500.3818359375	693.24951171875	-517.8217163085938	-2114.2294921875	152.5770721435547	-229.3443603515625	-2803.87060546875	464.0950317382812	-515.687255859375	-2579.262451171875	719.9151000976562	-536.5712280273438	-2358.549072265625	868.494384765625	-241.4872589111328	-2869.352294921875	76.97978210449219	-436.5164184570312	-2427.94677734375	837.0296630859375	-217.0615386962891	-2320.912109375	773.6149291992188	-249.0101013183594	-2394.268798828125	744.4497680664062	-234.8702697753906	-2609.8427734375	564.8974609375	-504.0901184082031	-2315.62744140625	595.469482421875	-263.9846801757812	-2747.764404296875	401.4639282226562	-509.4697875976562	-2827.076171875	338.3724670410156	-505.0832824707031	-2286.115234375	408.2579956054688	-236.4587554931641	-2914.49853515625	121.433479309082	-496.4135131835938	-2363.49365234375	390.4150695800781	-257.409423828125	-2989.355224609375	293.4602966308594	-418.2224731445312	-2262.53466796875	310.3751220703125	-248.7796478271484	-2335.028564453125	294.9142761230469	-277.7096252441406	-2931.640625	277.3105163574219	-496.7955322265625	-2254.708984375	170.9092712402344	-252.3140106201172	-2057.466064453125	202.9369659423828	-302.0653076171875	-2296.052978515625	108.2085418701172	-298.423095703125	-2272.9443359375	88.29145812988281	-331.5811157226562	-2280.56494140625	86.50674438476562	-274.3589477539062	-2998.152587890625	292.1219177246094	-472.1564636230469
3	0.01	-2385.397216796875	1563.5029296875	-544.4352416992188	-2474.237060546875	1539.783813476562	-240.0473937988281	-2432.787353515625	1074.977416992188	-542.4109497070312	-2446.4375	1098.517700195312	-248.5884094238281	-2392.39794921875	1032.306518554688	-516.3214721679688	-2962.16015625	317.1494445800781	-450.8346862792969	-2408.435791015625	1050.30517578125	-255.2914276123047	-2520.161865234375	968.4113159179688	-561.1537475585938	-2506.74755859375	959.7918090820312	-221.6529998779297	-2556.595947265625	1109.324096679688	-395.6836547851562	-2448.800048828125	790.4498291015625	-533.0120849609375	-2860.9697265625	403.4034118652344	-479.914794921875	-2523.465576171875	811.8062133789062	-561.3699340820312	-2482.47998046875	692.982177734375	-517.4930419921875	-2089.69091796875	154.1321716308594	-229.8321685791016	-2787.6455078125	466.9216918945312	-515.5926513671875	-2561.9921875	719.5655517578125	-536.5072631835938	-2342.947998046875	865.4808959960938	-241.3775482177734	-2859.072998046875	82.54885864257812	-435.0227661132812	-2414.3115234375	835.131591796875	-215.8109893798828	-2307.07470703125	769.4314575195312	-248.1917877197266	-2381.289306640625	742.2506103515625	-232.5461120605469	-2592.103515625	563.89306640625	-503.7228698730469	-2302.828857421875	593.0630493164062	-263.8026428222656	-2733.052490234375	403.3833618164062	-509.7734985351562	-2814.5986328125	342.3091125488281	-505.6497192382812	-2270.13916015625	407.0933227539062	-236.3620758056641	-2903.8427734375	128.2672119140625	-496.3077392578125	-2346.602294921875	388.4136962890625	-258.495361328125	-2978.873046875	299.3684692382812	-419.4381103515625	-2243.470947265625	310.6227722167969	-248.7440185546875	-2316.03759765625	293.7818603515625	-278.9039916992188	-2920.134765625	282.409912109375	-497.0235595703125	-2233.148681640625	170.3131408691406	-253.6073303222656	-2035.620483398438	207.4188385009766	-302.484375	-2270.986083984375	107.8346710205078	-298.1649169921875	-2247.99169921875	88.51963806152344	-331.3627014160156	-2255.715576171875	85.78823852539062	-273.6484069824219	-2987.12548828125	298.3172607421875	-473.1092224121094
4	0.015	-2369.689208984375	1563.639892578125	-543.2512817382812	-2458.503662109375	1539.063842773438	-238.9794158935547	-2417.246826171875	1075.647583007812	-542.7289428710938	-2429.441162109375	1097.834594726562	-247.9127960205078	-2376.5908203125	1032.332153320312	-516.5592041015625	-2951.693115234375	324.0059509277344	-452.1736755371094	-2391.934814453125	1050.33154296875	-255.0665283203125	-2504.236572265625	967.672607421875	-560.6767578125	-2489.513671875	959.4559326171876	-222.2842102050781	-2540.71142578125	1108.197998046875	-395.0982360839844	-2430.99462890625	790.16455078125	-531.6461791992188	-2845.86474609375	407.95654296875	-479.9686279296875	-2506.217041015625	810.8660888671875	-560.61669921875	-2464.770751953125	692.5333862304688	-516.85009765625	-2066.953369140625	155.660400390625	-230.5974884033203	-2771.27783203125	469.9810180664062	-516.0924682617188	-2544.13916015625	718.770263671875	-536.1021118164062	-2329.386962890625	862.3348999023438	-241.95068359375	-2848.145263671875	87.61949920654297	-433.5841979980469	-2400.036376953125	833.0752563476562	-214.8557586669922	-2293.91748046875	766.3419189453125	-248.03857421875	-2368.02197265625	739.025390625	-230.8928833007812	-2572.775634765625	562.1641235351562	-503.6990966796875	-2289.920166015625	590.4976196289062	-264.1504211425781	-2718.51904296875	404.6177368164062	-509.563720703125	-2800.93310546875	345.7886657714844	-504.9494934082031	-2253.2099609375	406.5482177734375	-236.5833129882812	-2893.582763671875	133.1270141601562	-496.6201477050781	-2329.3408203125	386.3671875	-258.3056945800781	-2967.264892578125	305.5468139648438	-419.8431091308594	-2223.690673828125	310.71142578125	-248.9447326660156	-2295.541259765625	291.3092041015625	-278.2476196289062	-2908.3798828125	287.659423828125	-496.8332824707031	-2210.820556640625	170.1092681884766	-253.2979278564453	-2013.75048828125	210.2239227294922	-302.6368713378906	-2249.232177734375	107.4795379638672	-298.9024353027344	-2225.744384765625	88.77261352539062	-332.1466674804688	-2232.84375	85.7991714477539	-274.3039855957031	-2975.900390625	304.0400085449219	-473.6439819335938
